<svg version="1.1" xmlns="http://www.w3.org/2000/svg" viewBox="0 0 1523.3333333333333 602.2222222222222" width="1523.3333333333333" height="602.2222222222222">
  <!-- svg-source:excalidraw -->
  
  <defs>
    <style class="style-fonts">
      @font-face {
        font-family: "Virgil";
        src: url("https://excalidraw.com/Virgil.woff2");
      }
      @font-face {
        font-family: "Cascadia";
        src: url("https://excalidraw.com/Cascadia.woff2");
      }
      @font-face {
        font-family: "Assistant";
        src: url("https://excalidraw.com/Assistant-Regular.woff2");
      }
    </style>
    
  </defs>
  <rect x="0" y="0" width="1523.3333333333333" height="602.2222222222222" fill="#ffffff"></rect><g transform="translate(41.88888888888823 53.22222222222558) rotate(0 157.248046875 22.5)"><text x="0" y="0" font-family="Virgil, Segoe UI Emoji" font-size="36px" fill="#1971c2" text-anchor="start" style="white-space: pre;" direction="ltr" dominant-baseline="text-before-edge">Models / Schemas</text></g><g transform="translate(402.88888888888823 361.22222222222547) rotate(0 164.0806884765625 17.5)"><text x="0" y="0" font-family="Virgil, Segoe UI Emoji" font-size="28px" fill="#1e1e1e" text-anchor="start" style="white-space: pre;" direction="ltr" dominant-baseline="text-before-edge">ProductsOnShoppingCart</text></g><g transform="translate(400.88888888888823 413.22222222222547) rotate(0 47.949951171875 50)"><text x="0" y="0" font-family="Virgil, Segoe UI Emoji" font-size="20px" fill="#1e1e1e" text-anchor="start" style="white-space: pre;" direction="ltr" dominant-baseline="text-before-edge">id</text><text x="0" y="25" font-family="Virgil, Segoe UI Emoji" font-size="20px" fill="#1e1e1e" text-anchor="start" style="white-space: pre;" direction="ltr" dominant-baseline="text-before-edge">cartId</text><text x="0" y="50" font-family="Virgil, Segoe UI Emoji" font-size="20px" fill="#1e1e1e" text-anchor="start" style="white-space: pre;" direction="ltr" dominant-baseline="text-before-edge">productId</text><text x="0" y="75" font-family="Virgil, Segoe UI Emoji" font-size="20px" fill="#1e1e1e" text-anchor="start" style="white-space: pre;" direction="ltr" dominant-baseline="text-before-edge">quantity</text></g><g stroke-linecap="round" transform="translate(375.88888888888823 347.22222222222547) rotate(0 192 94.5)"><path d="M32 0 C148.23 -2.42, 264.4 -0.74, 352 0 M32 0 C160.09 -1.89, 288.11 -2.47, 352 0 M352 0 C374.64 -0.91, 382.71 10.04, 384 32 M352 0 C374.69 -0.03, 385.84 9.25, 384 32 M384 32 C382.42 75.8, 384.48 122.05, 384 157 M384 32 C384.63 73.36, 384.81 115.17, 384 157 M384 157 C385.19 177.12, 375.12 187.68, 352 189 M384 157 C385.96 178.25, 373.99 187.01, 352 189 M352 189 C274.82 188.42, 199.81 190.22, 32 189 M352 189 C281.86 189.15, 212.3 189.89, 32 189 M32 189 C10.14 189.07, -1.66 176.72, 0 157 M32 189 C10.8 188.2, 0.69 180.6, 0 157 M0 157 C-0.27 126.08, 1.68 98.11, 0 32 M0 157 C-0.49 130.54, -0.52 103.76, 0 32 M0 32 C0.3 9.49, 10.86 0.54, 32 0 M0 32 C1.99 12.37, 11.03 -0.26, 32 0" stroke="#1e1e1e" stroke-width="2" fill="none"></path></g><g transform="translate(363.06498951781896 149.40461215933237) rotate(0 86.43055657920593 17.61006289308176)"><text x="0" y="0" font-family="Virgil, Segoe UI Emoji" font-size="28.17610062893082px" fill="#1e1e1e" text-anchor="start" style="white-space: pre;" direction="ltr" dominant-baseline="text-before-edge">ShoppingCart</text></g><g transform="translate(367.09014675052345 204.75052410901787) rotate(0 37.443993526434724 25.15723270440253)"><text x="0" y="0" font-family="Virgil, Segoe UI Emoji" font-size="20.12578616352201px" fill="#1e1e1e" text-anchor="start" style="white-space: pre;" direction="ltr" dominant-baseline="text-before-edge">id</text><text x="0" y="25.157232704402514" font-family="Virgil, Segoe UI Emoji" font-size="20.12578616352201px" fill="#1e1e1e" text-anchor="start" style="white-space: pre;" direction="ltr" dominant-baseline="text-before-edge">ownerId</text></g><g stroke-linecap="round" transform="translate(336.88888888888823 134.22222222222547) rotate(0 113.36792452830184 71.5)"><path d="M32 0 C84.84 2.16, 134.5 2.02, 194.74 0 M32 0 C97.42 1.48, 161.6 0.79, 194.74 0 M194.74 0 C216.03 -1.59, 228.48 8.69, 226.74 32 M194.74 0 C218.36 -1.47, 224.67 11.68, 226.74 32 M226.74 32 C228.66 61.79, 228.73 95.93, 226.74 111 M226.74 32 C227.87 48.53, 226.98 65.92, 226.74 111 M226.74 111 C227.09 130.39, 215.34 143.2, 194.74 143 M226.74 111 C225.08 132.82, 218.16 145.21, 194.74 143 M194.74 143 C152.36 142.02, 109.52 144.84, 32 143 M194.74 143 C130.98 142.99, 68.59 142.48, 32 143 M32 143 C10.68 141.22, -1.84 133.95, 0 111 M32 143 C12.44 143.15, 1.63 131.39, 0 111 M0 111 C0.09 93.73, -1.26 74.08, 0 32 M0 111 C0.06 88.84, -0.6 66.99, 0 32 M0 32 C-1.78 11.82, 8.78 -0.18, 32 0 M0 32 C-2.03 8.88, 11.9 -2.16, 32 0" stroke="#1e1e1e" stroke-width="2" fill="none"></path></g><g transform="translate(99.88888888888846 375.22222222222547) rotate(0 53.88623046875 17.5)"><text x="0" y="0" font-family="Virgil, Segoe UI Emoji" font-size="28px" fill="#1e1e1e" text-anchor="start" style="white-space: pre;" direction="ltr" dominant-baseline="text-before-edge">Product</text></g><g transform="translate(97.88888888888846 425.22222222222547) rotate(0 23.139976501464844 37.5)"><text x="0" y="0" font-family="Virgil, Segoe UI Emoji" font-size="20px" fill="#1e1e1e" text-anchor="start" style="white-space: pre;" direction="ltr" dominant-baseline="text-before-edge">id</text><text x="0" y="25" font-family="Virgil, Segoe UI Emoji" font-size="20px" fill="#1e1e1e" text-anchor="start" style="white-space: pre;" direction="ltr" dominant-baseline="text-before-edge">name</text><text x="0" y="50" font-family="Virgil, Segoe UI Emoji" font-size="20px" fill="#1e1e1e" text-anchor="start" style="white-space: pre;" direction="ltr" dominant-baseline="text-before-edge">price</text></g><g stroke-linecap="round" transform="translate(75.88888888888823 356.22222222222547) rotate(0 77.5 84)"><path d="M32 0 C59.56 1.89, 86.11 0.78, 123 0 M32 0 C68.31 0.4, 103.76 -0.12, 123 0 M123 0 C145.81 -0.09, 153.66 9.13, 155 32 M123 0 C142.54 -0.41, 156.06 11.02, 155 32 M155 32 C153.11 62.57, 155.21 95.46, 155 136 M155 32 C154.43 55.34, 154.67 79.26, 155 136 M155 136 C156.84 157.24, 145.37 166.16, 123 168 M155 136 C154.93 156.41, 142.06 169.66, 123 168 M123 168 C90.29 168.97, 56.58 165.31, 32 168 M123 168 C90.86 168.43, 57.31 167.97, 32 168 M32 168 C8.7 169.03, 1.42 157.11, 0 136 M32 168 C8.75 167.69, 1.33 157.7, 0 136 M0 136 C1.38 108.66, 0.33 81.17, 0 32 M0 136 C0.53 101.79, -0.3 67.61, 0 32 M0 32 C-1.62 10.56, 10.45 -0.08, 32 0 M0 32 C0.49 12.6, 12 -1.14, 32 0" stroke="#1e1e1e" stroke-width="2" fill="none"></path></g><g transform="translate(84.74603174603112 166.65079365079703) rotate(0 31.27613067626953 17.5)"><text x="0" y="0" font-family="Virgil, Segoe UI Emoji" font-size="28px" fill="#1e1e1e" text-anchor="start" style="white-space: pre;" direction="ltr" dominant-baseline="text-before-edge">User</text></g><g transform="translate(85.60317460317401 216.3650793650827) rotate(0 23.28997039794922 25)"><text x="0" y="0" font-family="Virgil, Segoe UI Emoji" font-size="20px" fill="#1e1e1e" text-anchor="start" style="white-space: pre;" direction="ltr" dominant-baseline="text-before-edge">id</text><text x="0" y="25" font-family="Virgil, Segoe UI Emoji" font-size="20px" fill="#1e1e1e" text-anchor="start" style="white-space: pre;" direction="ltr" dominant-baseline="text-before-edge">email</text></g><g stroke-linecap="round" transform="translate(57.88888888888823 134.22222222222547) rotate(0 58.5 82)"><path d="M29.25 0 C46.63 1.33, 59.27 0.95, 87.75 0 M29.25 0 C42.05 0.43, 54.09 -0.63, 87.75 0 M87.75 0 C107.28 -1.48, 116.67 8.59, 117 29.25 M87.75 0 C106 0.39, 117.96 8.22, 117 29.25 M117 29.25 C119.27 53.58, 118.63 79.96, 117 134.75 M117 29.25 C117.81 54.04, 116.5 80.51, 117 134.75 M117 134.75 C116.88 152.79, 106.43 164.42, 87.75 164 M117 134.75 C116.45 152.63, 108.23 164.83, 87.75 164 M87.75 164 C73.86 165.99, 63.85 163.67, 29.25 164 M87.75 164 C71.94 163.62, 55.21 163.47, 29.25 164 M29.25 164 C8.96 165.53, -1.54 153.67, 0 134.75 M29.25 164 C11.35 162.21, -1.87 156.3, 0 134.75 M0 134.75 C0.38 96.35, -1.29 54.49, 0 29.25 M0 134.75 C0.91 104.59, 0.43 76.89, 0 29.25 M0 29.25 C1.05 8.41, 11.43 1.5, 29.25 0 M0 29.25 C1.19 9.64, 9.11 2.28, 29.25 0" stroke="#1e1e1e" stroke-width="2" fill="none"></path></g><g stroke-linecap="round"><g transform="translate(357.88888888888823 243.22222222222547) rotate(0 -110 -9.5)"><path d="M0.36 -0.48 C-36.23 -3.64, -182.99 -16.02, -219.76 -19.22 M-0.91 -1.77 C-37.63 -4.72, -183.87 -14.97, -220.58 -17.8" stroke="#1e1e1e" stroke-width="2" fill="none"></path></g><g transform="translate(357.88888888888823 243.22222222222547) rotate(0 -110 -9.5)"><path d="M-196.52 -24.61 C-204.18 -22.19, -210.59 -21.1, -220.58 -17.8 M-196.52 -24.61 C-201.39 -22.97, -209.06 -21.56, -220.58 -17.8" stroke="#1e1e1e" stroke-width="2" fill="none"></path></g><g transform="translate(357.88888888888823 243.22222222222547) rotate(0 -110 -9.5)"><path d="M-197.77 -7.56 C-205.03 -10, -211.09 -13.75, -220.58 -17.8 M-197.77 -7.56 C-202.45 -10.05, -209.82 -12.78, -220.58 -17.8" stroke="#1e1e1e" stroke-width="2" fill="none"></path></g></g><mask></mask><g transform="translate(782.3637316561844 150.9046121593325) rotate(0 38.039146423339844 17.61006289308176)"><text x="0" y="0" font-family="Virgil, Segoe UI Emoji" font-size="28.17610062893082px" fill="#1e1e1e" text-anchor="start" style="white-space: pre;" direction="ltr" dominant-baseline="text-before-edge">Order</text></g><g transform="translate(786.3888888888887 206.25052410901787) rotate(0 32.959327697753906 25.15723270440253)"><text x="0" y="0" font-family="Virgil, Segoe UI Emoji" font-size="20.12578616352201px" fill="#1e1e1e" text-anchor="start" style="white-space: pre;" direction="ltr" dominant-baseline="text-before-edge">id</text><text x="0" y="25.157232704402514" font-family="Virgil, Segoe UI Emoji" font-size="20.12578616352201px" fill="#1e1e1e" text-anchor="start" style="white-space: pre;" direction="ltr" dominant-baseline="text-before-edge">cartId</text></g><g stroke-linecap="round" transform="translate(756.1876310272537 136.72222222222547) rotate(0 113.36792452830184 71.5)"><path d="M32 0 C85.14 -3.21, 134.34 -2.25, 194.74 0 M32 0 C79.43 0.3, 129.58 -1.16, 194.74 0 M194.74 0 C214.98 -1.74, 226.84 9.03, 226.74 32 M194.74 0 C215.13 -0.74, 228.2 11.89, 226.74 32 M226.74 32 C225.95 58.95, 226.87 87.86, 226.74 111 M226.74 32 C227.13 53.64, 226.07 72.73, 226.74 111 M226.74 111 C226.07 130.47, 214.39 141.63, 194.74 143 M226.74 111 C228.35 134.35, 214.04 141.49, 194.74 143 M194.74 143 C156.63 140.77, 120.31 141.45, 32 143 M194.74 143 C138.22 144.46, 81.59 142.59, 32 143 M32 143 C11.63 143.13, -0.8 133.08, 0 111 M32 143 C10.09 145.22, -0.42 131.96, 0 111 M0 111 C-1.01 93.06, -1.27 77.87, 0 32 M0 111 C-0.78 89.56, 0.82 65.81, 0 32 M0 32 C-1.36 12.41, 11.59 1.54, 32 0 M0 32 C0.21 12.8, 10.52 -1.24, 32 0" stroke="#1e1e1e" stroke-width="2" fill="none"></path></g><g transform="translate(1078.9999999999989 152.83333333333655) rotate(0 116.01848602294922 17.5)"><text x="0" y="0" font-family="Virgil, Segoe UI Emoji" font-size="28px" fill="#1e1e1e" text-anchor="start" style="white-space: pre;" direction="ltr" dominant-baseline="text-before-edge">ProductsOnOrder</text></g><g transform="translate(1076.9999999999989 204.83333333333655) rotate(0 61.719932556152344 62.5)"><text x="0" y="0" font-family="Virgil, Segoe UI Emoji" font-size="20px" fill="#1e1e1e" text-anchor="start" style="white-space: pre;" direction="ltr" dominant-baseline="text-before-edge">id</text><text x="0" y="25" font-family="Virgil, Segoe UI Emoji" font-size="20px" fill="#1e1e1e" text-anchor="start" style="white-space: pre;" direction="ltr" dominant-baseline="text-before-edge">orderId</text><text x="0" y="50" font-family="Virgil, Segoe UI Emoji" font-size="20px" fill="#1e1e1e" text-anchor="start" style="white-space: pre;" direction="ltr" dominant-baseline="text-before-edge">productName</text><text x="0" y="75" font-family="Virgil, Segoe UI Emoji" font-size="20px" fill="#1e1e1e" text-anchor="start" style="white-space: pre;" direction="ltr" dominant-baseline="text-before-edge">price</text><text x="0" y="100" font-family="Virgil, Segoe UI Emoji" font-size="20px" fill="#1e1e1e" text-anchor="start" style="white-space: pre;" direction="ltr" dominant-baseline="text-before-edge">quantity</text></g><g stroke-linecap="round" transform="translate(1051.9999999999989 138.83333333333655) rotate(0 150.5 107)"><path d="M32 0 C100.57 -0.86, 165.05 0.08, 269 0 M32 0 C104.34 -0.65, 178.38 -0.47, 269 0 M269 0 C289.06 -0.13, 301.16 8.82, 301 32 M269 0 C290.89 -0.5, 298.8 12.58, 301 32 M301 32 C298.3 76.81, 299.21 121.5, 301 182 M301 32 C300.44 70.2, 299.65 109.45, 301 182 M301 182 C301.06 204.32, 292.29 213.37, 269 214 M301 182 C303.02 202.07, 291.06 213.89, 269 214 M269 214 C212.69 213.88, 156.42 214.25, 32 214 M269 214 C186.43 213.54, 103.92 212.1, 32 214 M32 214 C11.89 215.16, 0.32 202.03, 0 182 M32 214 C11.06 213.89, 0.81 202.72, 0 182 M0 182 C2.28 135.1, 2.3 90.94, 0 32 M0 182 C-0.56 132.34, -0.39 80.51, 0 32 M0 32 C-1.52 8.74, 9.44 1.42, 32 0 M0 32 C-1.34 11.42, 12.71 -1.86, 32 0" stroke="#1e1e1e" stroke-width="2" fill="none"></path></g><g stroke-linecap="round"><g transform="translate(392.88888888888823 477.22222222222547) rotate(0 -120 -18.5)"><path d="M-0.78 1.02 C-40.71 -4.83, -199.06 -29.51, -238.92 -35.92 M1.02 0.5 C-39.04 -5.57, -199.02 -31.33, -239.3 -37.47" stroke="#1e1e1e" stroke-width="2" fill="none"></path></g><g transform="translate(392.88888888888823 477.22222222222547) rotate(0 -120 -18.5)"><path d="M-214.76 -42.27 C-221.88 -38.91, -230.55 -38.86, -239.3 -37.47 M-214.76 -42.27 C-221.09 -41.74, -226.95 -39.67, -239.3 -37.47" stroke="#1e1e1e" stroke-width="2" fill="none"></path></g><g transform="translate(392.88888888888823 477.22222222222547) rotate(0 -120 -18.5)"><path d="M-217.42 -25.38 C-223.47 -28.04, -231.19 -34.04, -239.3 -37.47 M-217.42 -25.38 C-222.9 -29.3, -228.05 -31.7, -239.3 -37.47" stroke="#1e1e1e" stroke-width="2" fill="none"></path></g></g><mask></mask><g stroke-linecap="round"><g transform="translate(391.88888888888823 450.22222222222547) rotate(0 -59 -117)"><path d="M0.72 0.64 C-18.93 -27.72, -111.23 -131.14, -117.12 -170.18 C-123 -209.22, -48.21 -223.11, -34.58 -233.59 M-0.36 -0.07 C-20.16 -28.33, -111.81 -129.99, -117.6 -169.26 C-123.4 -208.54, -48.84 -224.74, -35.12 -235.71" stroke="#1971c2" stroke-width="2" fill="none"></path></g><g transform="translate(391.88888888888823 450.22222222222547) rotate(0 -59 -117)"><path d="M-52.73 -217.96 C-45.25 -223.05, -41.89 -230.28, -35.12 -235.71 M-52.73 -217.96 C-47.68 -224.47, -40.09 -230.86, -35.12 -235.71" stroke="#1971c2" stroke-width="2" fill="none"></path></g><g transform="translate(391.88888888888823 450.22222222222547) rotate(0 -59 -117)"><path d="M-60.02 -233.43 C-49.9 -232.94, -43.87 -234.54, -35.12 -235.71 M-60.02 -233.43 C-52.58 -234.82, -42.54 -236.04, -35.12 -235.71" stroke="#1971c2" stroke-width="2" fill="none"></path></g></g><mask></mask><g stroke-linecap="round"><g transform="translate(778.5555555555554 247.55325438554826) rotate(0 -163.3333333333336 -16.582340622182528)"><path d="M-1.08 0.07 C-55.68 -5.35, -272.25 -28.33, -326.69 -33.68 M0.55 -0.94 C-54.29 -6.1, -273.32 -26.94, -327.66 -32.41" stroke="#1e1e1e" stroke-width="2" fill="none"></path></g><g transform="translate(778.5555555555554 247.55325438554826) rotate(0 -163.3333333333336 -16.582340622182528)"><path d="M-303.45 -38.64 C-312.48 -36.57, -322.53 -36.03, -327.66 -32.41 M-303.45 -38.64 C-313.35 -37.05, -323.08 -33.3, -327.66 -32.41" stroke="#1e1e1e" stroke-width="2" fill="none"></path></g><g transform="translate(778.5555555555554 247.55325438554826) rotate(0 -163.3333333333336 -16.582340622182528)"><path d="M-305.1 -21.62 C-313.35 -25.92, -322.78 -31.77, -327.66 -32.41 M-305.1 -21.62 C-314.5 -26.75, -323.58 -29.72, -327.66 -32.41" stroke="#1e1e1e" stroke-width="2" fill="none"></path></g></g><mask></mask><g stroke-linecap="round"><g transform="translate(1070.9999999999989 238.25790889968619) rotate(0 -103.72222222222183 -9.11321799640558)"><path d="M-0.97 -0.52 C-35.56 -3.56, -171.97 -14.18, -206.34 -17.07 M0.72 1.82 C-34.03 -1.02, -171.95 -14.95, -206.7 -18.58" stroke="#1e1e1e" stroke-width="2" fill="none"></path></g><g transform="translate(1070.9999999999989 238.25790889968619) rotate(0 -103.72222222222183 -9.11321799640558)"><path d="M-182.46 -24.7 C-192.93 -20.61, -199.79 -19.59, -206.7 -18.58 M-182.46 -24.7 C-190.5 -22.85, -198.19 -19.49, -206.7 -18.58" stroke="#1e1e1e" stroke-width="2" fill="none"></path></g><g transform="translate(1070.9999999999989 238.25790889968619) rotate(0 -103.72222222222183 -9.11321799640558)"><path d="M-184.2 -7.69 C-194.14 -10.37, -200.32 -16.12, -206.7 -18.58 M-184.2 -7.69 C-191.74 -11.53, -198.85 -13.84, -206.7 -18.58" stroke="#1e1e1e" stroke-width="2" fill="none"></path></g></g><mask></mask><g transform="translate(1040.9999999999989 462.33333333333655) rotate(0 209.38973999023438 37.5)"><text x="0" y="0" font-family="Virgil, Segoe UI Emoji" font-size="20px" fill="#1e1e1e" text-anchor="start" style="white-space: pre;" direction="ltr" dominant-baseline="text-before-edge">* Expanded product else if related by</text><text x="0" y="25" font-family="Virgil, Segoe UI Emoji" font-size="20px" fill="#1e1e1e" text-anchor="start" style="white-space: pre;" direction="ltr" dominant-baseline="text-before-edge">FK to Products table, row will not be</text><text x="0" y="50" font-family="Virgil, Segoe UI Emoji" font-size="20px" fill="#1e1e1e" text-anchor="start" style="white-space: pre;" direction="ltr" dominant-baseline="text-before-edge">able to be hard deleted due to contraint.</text></g><g stroke-linecap="round"><g transform="translate(1215.3515824488074 371.33333333333655) rotate(0 0.8525275344700276 40.5)"><path d="M-0.37 -0.31 C-0.29 13.19, 0.95 68, 1.44 81.7" stroke="#1e1e1e" stroke-width="2.5" fill="none" stroke-dasharray="8 10"></path></g></g><mask></mask><g stroke-linecap="round" transform="translate(10 10) rotate(0 751.6666666666666 291.1111111111111)"><path d="M32 0 C388.5 4.22, 743.06 4.35, 1471.33 0 M32 0 C522.71 4.58, 1013.48 4.65, 1471.33 0 M1471.33 0 C1494.07 0.03, 1505.32 9.02, 1503.33 32 M1471.33 0 C1492.31 -0.24, 1505.61 9.87, 1503.33 32 M1503.33 32 C1504.67 154.52, 1504.58 276.5, 1503.33 550.22 M1503.33 32 C1505.03 149.36, 1504.79 267.12, 1503.33 550.22 M1503.33 550.22 C1505.28 572.49, 1494.52 582.82, 1471.33 582.22 M1503.33 550.22 C1505.49 572.51, 1493.84 583.32, 1471.33 582.22 M1471.33 582.22 C1086.63 583.06, 700.19 582.21, 32 582.22 M1471.33 582.22 C963.24 587.45, 455.69 587.14, 32 582.22 M32 582.22 C9.24 582.11, 0.87 572.09, 0 550.22 M32 582.22 C9.54 580.38, -0.97 569.97, 0 550.22 M0 550.22 C1.55 366.1, 1.78 180.35, 0 32 M0 550.22 C-1.34 428.11, -1.37 306.06, 0 32 M0 32 C-1.34 9.05, 11.4 -0.04, 32 0 M0 32 C0.41 11.16, 11.05 -2.09, 32 0" stroke="#1e1e1e" stroke-width="1" fill="none"></path></g></svg>